<svg xmlns="http://www.w3.org/2000/svg" viewBox="0 0 624.53 182.89"><defs><style>.cls-1{fill:#AB122F;}</style></defs><g id="Capa_2" data-name="Capa 2"><g id="Capa_1-2" data-name="Capa 1"><path class="cls-1" d="M59.17,0V28.08H0V43.15H9.06v9.51H14V159.4H9.06v9.17H0v14.32H115.11V26ZM19.8,159.4H18.06V52.66H19.8Zm5.81,0H23.88V52.66h1.73Zm5.82,0H29.7V52.66h1.73Zm5.82,0H35.52V52.66h1.73Zm5.82,0H41.34V52.66h1.73Zm16.1,9.17H52V159.4H47.15V52.66H52V43.15h7.16Zm25.92-72H68.81V83.43H85.09Zm0-23.36H68.81V60.06H85.09Zm22.08,23.36H90.89V83.43h16.28Zm0-23.36H90.89V60.06h16.28Z"/><path class="cls-1" d="M192.27,128.8H163.7c-.95,0-1.43-.43-1.43-1.28v-5.4c0-.85.48-1.27,1.43-1.27H172V60.64H163.7c-.95,0-1.43-.43-1.43-1.27V54c0-.85.48-1.27,1.43-1.27h33.72q11.6,0,19,6.52t7.4,17.59q0,11.08-7.23,17.17t-20.37,6.1H181.54v20.78h10.73c.88,0,1.32.42,1.32,1.27v5.4A1.15,1.15,0,0,1,192.27,128.8ZM181.54,92.54h14.24q18.39,0,18.39-15.68,0-8.17-5.2-12.19t-13.08-4H181.54Z"/><path class="cls-1" d="M297.27,128.8H272.53a1.15,1.15,0,0,1-1.32-1.28v-5.4c0-.85.44-1.27,1.32-1.27h7.66l-7.11-18.34H242.53l-7.12,18.34h7.67a1.14,1.14,0,0,1,1.31,1.27v5.4a1.15,1.15,0,0,1-1.31,1.28H218.44a1.14,1.14,0,0,1-1.31-1.28v-5.4c0-.85.43-1.27,1.31-1.27h7.34l23.54-60.21H243.4c-1,0-1.42-.43-1.42-1.27V54c0-.85.47-1.27,1.42-1.27h14.89a6.4,6.4,0,0,1,4,1.06,8.11,8.11,0,0,1,2.35,3.5l25.19,63.6h7.44c.88,0,1.32.42,1.32,1.27v5.4A1.15,1.15,0,0,1,297.27,128.8ZM270.12,95.19,258,63.71h-.33L245.37,95.19Z"/><path class="cls-1" d="M363.73,128.8H303.84c-.95,0-1.42-.43-1.42-1.28v-5.4c0-.85.47-1.27,1.42-1.27h8.32V60.64h-8.32c-.95,0-1.42-.43-1.42-1.27V54c0-.85.47-1.27,1.42-1.27H330a1.24,1.24,0,0,1,1.42,1.38v5.19A1.24,1.24,0,0,1,330,60.64h-8.32v60.21h34.82V110.46c0-.85.47-1.27,1.42-1.27h5.91c.88,0,1.31.42,1.31,1.27v17A1.24,1.24,0,0,1,363.73,128.8Z"/><path class="cls-1" d="M445.85,90.37q0,17.44-10.79,28.3t-27.15,10.87q-16.37,0-27.32-11T369.64,90.26q0-17.33,11.28-27.77a38.29,38.29,0,0,1,26.94-10.44,37.89,37.89,0,0,1,26.82,10.44Q445.84,72.93,445.85,90.37Zm-57.54,22.47a27.53,27.53,0,0,0,39,0q8.32-8.1,8.33-22.26t-8.49-22.15q-8.49-8-19.32-8t-19.38,8q-8.55,8-8.54,22.15T388.31,112.84Z"/><path class="cls-1" d="M540.12,128.8H514.83a1.15,1.15,0,0,1-1.32-1.28v-5.4c0-.85.44-1.27,1.32-1.27h7.33V68.06h-.11l-20.8,50a5.24,5.24,0,0,1-9.64,0l-20.8-50h-.22v52.79h7.34c.95,0,1.42.42,1.42,1.27v5.4c0,.85-.47,1.28-1.42,1.28H452.75c-.95,0-1.43-.43-1.43-1.28v-5.4c0-.85.48-1.27,1.43-1.27h8.32V60.64h-8.32c-.95,0-1.43-.43-1.43-1.27V54c0-.85.48-1.27,1.43-1.27h16.86a5.15,5.15,0,0,1,5.14,3.6l16.32,38.16,5.14,13.36h.44q3.06-8.27,5-13.15l16.42-38.37a5.23,5.23,0,0,1,5.26-3.6h16.75A1.14,1.14,0,0,1,541.43,54v5.41a1.14,1.14,0,0,1-1.31,1.27h-8.43v60.21h8.43a1.14,1.14,0,0,1,1.31,1.27v5.4A1.15,1.15,0,0,1,540.12,128.8Z"/><path class="cls-1" d="M624.53,90.37q0,17.44-10.78,28.3T586.6,129.54q-16.38,0-27.32-11T548.33,90.26q0-17.33,11.28-27.77a39.82,39.82,0,0,1,53.76,0Q624.53,72.93,624.53,90.37ZM567,112.84a27.53,27.53,0,0,0,39,0q8.33-8.1,8.32-22.26t-8.48-22.15q-8.49-8-19.33-8t-19.38,8q-8.53,8-8.54,22.15T567,112.84Z"/><path class="cls-1" d="M181.08,158.53h-3.3a5.08,5.08,0,0,0-.71-1.86,5.15,5.15,0,0,0-1.27-1.36,5.38,5.38,0,0,0-1.67-.85,6.64,6.64,0,0,0-2-.28,6.06,6.06,0,0,0-3.35.94,6.25,6.25,0,0,0-2.32,2.76,11.92,11.92,0,0,0,0,8.89,6.17,6.17,0,0,0,2.33,2.75,6.1,6.1,0,0,0,3.33.93,6.62,6.62,0,0,0,2-.28,5.33,5.33,0,0,0,1.67-.83,4.92,4.92,0,0,0,1.27-1.34,5.07,5.07,0,0,0,.73-1.84h3.3a9.08,9.08,0,0,1-1,2.94,8.11,8.11,0,0,1-1.94,2.3,8.72,8.72,0,0,1-2.69,1.5,10,10,0,0,1-3.3.52,9.48,9.48,0,0,1-5-1.33,9.34,9.34,0,0,1-3.46-3.83,13.1,13.1,0,0,1-1.26-6,12.9,12.9,0,0,1,1.27-5.95,9.23,9.23,0,0,1,3.47-3.83,9.41,9.41,0,0,1,5-1.33,10.15,10.15,0,0,1,3.22.49,8.38,8.38,0,0,1,2.69,1.43,8,8,0,0,1,2,2.31A9.09,9.09,0,0,1,181.08,158.53Z"/><path class="cls-1" d="M193,173.47a7.41,7.41,0,0,1-4-1.05,7,7,0,0,1-2.65-2.93,10.79,10.79,0,0,1,0-8.81,7.07,7.07,0,0,1,2.65-2.94,8.09,8.09,0,0,1,8,0,7.11,7.11,0,0,1,2.64,2.94,10.79,10.79,0,0,1,0,8.81,7.09,7.09,0,0,1-2.64,2.93A7.47,7.47,0,0,1,193,173.47Zm0-2.66a3.77,3.77,0,0,0,2.45-.78,4.69,4.69,0,0,0,1.45-2.08,8.94,8.94,0,0,0,0-5.72,4.7,4.7,0,0,0-1.45-2.1,3.72,3.72,0,0,0-2.45-.8,3.8,3.8,0,0,0-2.47.8,4.6,4.6,0,0,0-1.44,2.1,8.94,8.94,0,0,0,0,5.72,4.6,4.6,0,0,0,1.44,2.08A3.84,3.84,0,0,0,193,170.81Z"/><path class="cls-1" d="M208.68,163.5v9.64h-3.16V156.9h3v2.65h.2a4.67,4.67,0,0,1,1.76-2.08,5.46,5.46,0,0,1,3-.78,5.93,5.93,0,0,1,2.91.69,4.76,4.76,0,0,1,1.93,2.06,7.41,7.41,0,0,1,.69,3.37v10.33h-3.16v-9.95a3.93,3.93,0,0,0-.92-2.76,3.27,3.27,0,0,0-2.53-1,4,4,0,0,0-2,.47,3.45,3.45,0,0,0-1.34,1.39A4.6,4.6,0,0,0,208.68,163.5Z"/><path class="cls-1" d="M236.89,160.87l-2.87.5a3.41,3.41,0,0,0-.56-1,3,3,0,0,0-1-.82,3.78,3.78,0,0,0-1.64-.31,4,4,0,0,0-2.24.59,1.79,1.79,0,0,0-.9,1.54,1.62,1.62,0,0,0,.6,1.31,5,5,0,0,0,1.95.82l2.58.59a7,7,0,0,1,3.34,1.59,3.77,3.77,0,0,1,1.1,2.8,4.26,4.26,0,0,1-.84,2.6,5.54,5.54,0,0,1-2.34,1.78,8.68,8.68,0,0,1-3.46.65,7.77,7.77,0,0,1-4.45-1.17A4.94,4.94,0,0,1,224,169l3.06-.46a2.88,2.88,0,0,0,1.17,1.8,4,4,0,0,0,2.32.61,4.28,4.28,0,0,0,2.48-.65,1.89,1.89,0,0,0,.93-1.59,1.67,1.67,0,0,0-.56-1.28,3.72,3.72,0,0,0-1.73-.78l-2.75-.61a6.58,6.58,0,0,1-3.36-1.64,4,4,0,0,1-1.08-2.87,4.14,4.14,0,0,1,.8-2.52,5.37,5.37,0,0,1,2.22-1.68,8.12,8.12,0,0,1,3.25-.61,6.74,6.74,0,0,1,4.14,1.14A5.31,5.31,0,0,1,236.89,160.87Z"/><path class="cls-1" d="M249.68,156.9v2.54h-8.87V156.9ZM243.19,153h3.16v15.36a2.69,2.69,0,0,0,.28,1.38,1.33,1.33,0,0,0,.71.62,2.69,2.69,0,0,0,1,.17,3.23,3.23,0,0,0,.66-.06l.45-.08L250,173a7.2,7.2,0,0,1-.79.22,7,7,0,0,1-1.26.12,5.63,5.63,0,0,1-2.33-.44,3.94,3.94,0,0,1-1.74-1.44,4.18,4.18,0,0,1-.67-2.44Z"/><path class="cls-1" d="M254.6,173.14V156.9h3v2.58h.17a4,4,0,0,1,1.57-2.06,4.43,4.43,0,0,1,2.55-.76l.71,0c.27,0,.48,0,.64,0v3a4.62,4.62,0,0,0-.68-.12,6.42,6.42,0,0,0-1-.07,4.1,4.1,0,0,0-2,.47,3.52,3.52,0,0,0-1.38,1.3,3.59,3.59,0,0,0-.5,1.88v9.92Z"/><path class="cls-1" d="M277.75,166.4v-9.5h3.17v16.24h-3.11v-2.81h-.17a5.09,5.09,0,0,1-1.79,2.16,5.23,5.23,0,0,1-3.06.86,5.41,5.41,0,0,1-2.76-.69,4.8,4.8,0,0,1-1.89-2.06,7.55,7.55,0,0,1-.68-3.37V156.9h3.16v9.95a3.71,3.71,0,0,0,.92,2.64,3.1,3.1,0,0,0,2.39,1,3.86,3.86,0,0,0,1.77-.44,3.77,3.77,0,0,0,1.47-1.34A4.12,4.12,0,0,0,277.75,166.4Z"/><path class="cls-1" d="M293.42,173.47a7.38,7.38,0,0,1-4.05-1.08,7,7,0,0,1-2.61-3,10,10,0,0,1-.91-4.34,9.85,9.85,0,0,1,.93-4.37,7.14,7.14,0,0,1,2.63-3,7.29,7.29,0,0,1,4-1.07,7.75,7.75,0,0,1,3.3.68,6.1,6.1,0,0,1,2.34,1.91,5.71,5.71,0,0,1,1.06,2.87H297a3.7,3.7,0,0,0-1.16-2,3.45,3.45,0,0,0-2.42-.83,4,4,0,0,0-2.31.7,4.48,4.48,0,0,0-1.53,2,7.49,7.49,0,0,0-.55,3,8,8,0,0,0,.54,3.07,4.48,4.48,0,0,0,1.52,2,3.85,3.85,0,0,0,2.33.71,4,4,0,0,0,1.64-.33,3.22,3.22,0,0,0,1.23-1A3.61,3.61,0,0,0,297,168h3.07a5.86,5.86,0,0,1-3.31,4.76A7.53,7.53,0,0,1,293.42,173.47Z"/><path class="cls-1" d="M311.75,173.47a7.38,7.38,0,0,1-4.05-1.08,7,7,0,0,1-2.61-3,10,10,0,0,1-.91-4.34,9.85,9.85,0,0,1,.93-4.37,7.14,7.14,0,0,1,2.63-3,7.29,7.29,0,0,1,4-1.07,7.75,7.75,0,0,1,3.3.68,6.1,6.1,0,0,1,2.34,1.91,5.8,5.8,0,0,1,1.06,2.87h-3.07a3.7,3.7,0,0,0-1.16-2,3.45,3.45,0,0,0-2.42-.83,4,4,0,0,0-2.31.7,4.41,4.41,0,0,0-1.53,2,7.49,7.49,0,0,0-.55,3,8,8,0,0,0,.54,3.07,4.48,4.48,0,0,0,1.52,2,3.85,3.85,0,0,0,2.33.71,4,4,0,0,0,1.64-.33,3.22,3.22,0,0,0,1.23-1,3.61,3.61,0,0,0,.71-1.5h3.07a5.86,5.86,0,0,1-3.31,4.76A7.56,7.56,0,0,1,311.75,173.47Z"/><path class="cls-1" d="M324.84,154.4a2,2,0,0,1-1.41-.56,1.76,1.76,0,0,1-.59-1.32,1.79,1.79,0,0,1,.59-1.34,2.06,2.06,0,0,1,2.82,0,1.79,1.79,0,0,1,.59,1.34,1.76,1.76,0,0,1-.59,1.32A2,2,0,0,1,324.84,154.4Zm-1.6,18.74V156.9h3.16v16.24Z"/><path class="cls-1" d="M338.92,173.47a7.41,7.41,0,0,1-4-1.05,7,7,0,0,1-2.65-2.93,10.79,10.79,0,0,1,0-8.81,7.07,7.07,0,0,1,2.65-2.94,8.07,8.07,0,0,1,8,0,7.07,7.07,0,0,1,2.65,2.94,10.79,10.79,0,0,1,0,8.81,7,7,0,0,1-2.65,2.93A7.41,7.41,0,0,1,338.92,173.47Zm0-2.66a3.79,3.79,0,0,0,2.45-.78,4.69,4.69,0,0,0,1.45-2.08,8.94,8.94,0,0,0,0-5.72,4.7,4.7,0,0,0-1.45-2.1,3.74,3.74,0,0,0-2.45-.8,3.8,3.8,0,0,0-2.47.8,4.7,4.7,0,0,0-1.45,2.1,8.94,8.94,0,0,0,0,5.72,4.69,4.69,0,0,0,1.45,2.08A3.84,3.84,0,0,0,338.93,170.81Z"/><path class="cls-1" d="M354.6,163.5v9.64h-3.16V156.9h3v2.65h.2a4.67,4.67,0,0,1,1.76-2.08,5.46,5.46,0,0,1,3-.78,5.89,5.89,0,0,1,2.9.69,4.72,4.72,0,0,1,1.94,2.06,7.41,7.41,0,0,1,.69,3.37v10.33h-3.16v-9.95a3.93,3.93,0,0,0-.92-2.76,3.27,3.27,0,0,0-2.53-1,4,4,0,0,0-1.95.47,3.45,3.45,0,0,0-1.34,1.39A4.6,4.6,0,0,0,354.6,163.5Z"/><path class="cls-1" d="M377.64,173.47a8,8,0,0,1-4.13-1,6.88,6.88,0,0,1-2.66-2.91,10.77,10.77,0,0,1,0-8.8,7.15,7.15,0,0,1,2.62-3,7.23,7.23,0,0,1,3.95-1.07,7.8,7.8,0,0,1,2.66.46,6.58,6.58,0,0,1,2.32,1.42,6.71,6.71,0,0,1,1.61,2.52,10.48,10.48,0,0,1,.6,3.76V166H371.7V163.6h9.81a4.65,4.65,0,0,0-.51-2.21,4,4,0,0,0-1.42-1.53,4,4,0,0,0-2.14-.56,4.15,4.15,0,0,0-2.32.65,4.41,4.41,0,0,0-1.52,1.69,4.86,4.86,0,0,0-.54,2.26v1.85a6.13,6.13,0,0,0,.58,2.77,4.06,4.06,0,0,0,1.61,1.74,4.74,4.74,0,0,0,2.42.59,5,5,0,0,0,1.64-.25,3.7,3.7,0,0,0,1.28-.78,3.4,3.4,0,0,0,.82-1.28l3,.54a5.38,5.38,0,0,1-1.28,2.31,6.23,6.23,0,0,1-2.31,1.53A8.74,8.74,0,0,1,377.64,173.47Z"/><path class="cls-1" d="M401.72,160.87l-2.86.5a3.44,3.44,0,0,0-.57-1,3,3,0,0,0-1-.82,3.78,3.78,0,0,0-1.64-.31,4,4,0,0,0-2.24.59,1.79,1.79,0,0,0-.9,1.54,1.62,1.62,0,0,0,.6,1.31,5.07,5.07,0,0,0,1.95.82l2.58.59a7,7,0,0,1,3.34,1.59,3.77,3.77,0,0,1,1.1,2.8,4.26,4.26,0,0,1-.84,2.6,5.54,5.54,0,0,1-2.34,1.78,8.68,8.68,0,0,1-3.46.65A7.77,7.77,0,0,1,391,172.3a4.89,4.89,0,0,1-2.11-3.33l3.05-.46a2.88,2.88,0,0,0,1.17,1.8,4,4,0,0,0,2.32.61,4.28,4.28,0,0,0,2.48-.65,1.89,1.89,0,0,0,.93-1.59,1.67,1.67,0,0,0-.56-1.28,3.72,3.72,0,0,0-1.73-.78l-2.75-.61a6.62,6.62,0,0,1-3.36-1.64,4,4,0,0,1-1.08-2.87,4.14,4.14,0,0,1,.8-2.52,5.37,5.37,0,0,1,2.22-1.68,8.12,8.12,0,0,1,3.25-.61,6.74,6.74,0,0,1,4.14,1.14A5.31,5.31,0,0,1,401.72,160.87Z"/><path class="cls-1" d="M422.54,173.44a8.16,8.16,0,0,1-3.74-.79,5.93,5.93,0,0,1-2.42-2.16,5.81,5.81,0,0,1-.84-3.1,4.85,4.85,0,0,1,.55-2.35,6.64,6.64,0,0,1,1.53-1.91,24,24,0,0,1,2.27-1.77l3.49-2.46a5.63,5.63,0,0,0,1.38-1.23,2.52,2.52,0,0,0,.5-1.61,2.13,2.13,0,0,0-.65-1.46,2.3,2.3,0,0,0-1.76-.7,2.41,2.41,0,0,0-1.34.37,2.61,2.61,0,0,0-.89.95,2.37,2.37,0,0,0-.33,1.21,3.13,3.13,0,0,0,.41,1.49,10.61,10.61,0,0,0,1.05,1.55c.43.53.88,1.08,1.36,1.65l10.05,12h-3.58l-8.31-9.78c-.7-.82-1.35-1.6-1.95-2.33a11.54,11.54,0,0,1-1.45-2.22,5.43,5.43,0,0,1-.56-2.44,5.14,5.14,0,0,1,.68-2.64,4.85,4.85,0,0,1,1.91-1.82,6.12,6.12,0,0,1,2.88-.65,6,6,0,0,1,2.87.65,4.81,4.81,0,0,1,1.85,1.72,4.49,4.49,0,0,1,.65,2.34,4.87,4.87,0,0,1-.77,2.72,8.3,8.3,0,0,1-2.11,2.17l-4.34,3.2a6,6,0,0,0-1.76,1.83,2.76,2.76,0,0,0,0,3.14,3.52,3.52,0,0,0,1.35,1.27,4.28,4.28,0,0,0,2.05.47,5.61,5.61,0,0,0,2.35-.52,6.67,6.67,0,0,0,2.08-1.51,7.18,7.18,0,0,0,1.48-2.36,8.11,8.11,0,0,0,.55-3.07h2.86a11.28,11.28,0,0,1-.48,3.53,8.17,8.17,0,0,1-1.14,2.35A8.73,8.73,0,0,1,429,170.6l-.36.34c-.11.11-.23.23-.36.34a6.79,6.79,0,0,1-2.66,1.64A9.52,9.52,0,0,1,422.54,173.44Z"/><path class="cls-1" d="M449.88,151.49v21.65h-3.27V151.49Z"/><path class="cls-1" d="M459,163.5v9.64h-3.16V156.9h3v2.65h.2a4.67,4.67,0,0,1,1.76-2.08,5.44,5.44,0,0,1,3-.78,5.91,5.91,0,0,1,2.91.69,4.78,4.78,0,0,1,1.94,2.06,7.55,7.55,0,0,1,.68,3.37v10.33H466.2v-9.95a3.89,3.89,0,0,0-.92-2.76,3.23,3.23,0,0,0-2.52-1,4,4,0,0,0-1.95.47,3.48,3.48,0,0,0-1.35,1.39A4.71,4.71,0,0,0,459,163.5Z"/><path class="cls-1" d="M475,173.14V156.9h3v2.65h.2a4.24,4.24,0,0,1,1.66-2.1,4.88,4.88,0,0,1,2.76-.76,4.72,4.72,0,0,1,2.73.76,4.47,4.47,0,0,1,1.64,2.1h.17a4.53,4.53,0,0,1,1.85-2.08,5.63,5.63,0,0,1,3-.78,4.89,4.89,0,0,1,3.61,1.39,5.63,5.63,0,0,1,1.4,4.17v10.89h-3.16V162.55a2.92,2.92,0,0,0-.9-2.39,3.28,3.28,0,0,0-2.15-.74,3.06,3.06,0,0,0-2.39.94,3.46,3.46,0,0,0-.86,2.43v10.35h-3.15V162.35a2.85,2.85,0,0,0-.83-2.13,2.94,2.94,0,0,0-2.14-.8,3.07,3.07,0,0,0-1.65.47,3.47,3.47,0,0,0-1.22,1.3,4,4,0,0,0-.46,1.94v10Z"/><path class="cls-1" d="M509.58,173.47a7.41,7.41,0,0,1-4-1.05,7,7,0,0,1-2.64-2.93,10.79,10.79,0,0,1,0-8.81,7,7,0,0,1,2.64-2.94,8.09,8.09,0,0,1,8,0,7.11,7.11,0,0,1,2.64,2.94,10.79,10.79,0,0,1,0,8.81,7.09,7.09,0,0,1-2.64,2.93A7.45,7.45,0,0,1,509.58,173.47Zm0-2.66a3.81,3.81,0,0,0,2.46-.78,4.67,4.67,0,0,0,1.44-2.08,8.94,8.94,0,0,0,0-5.72,4.68,4.68,0,0,0-1.44-2.1,4.18,4.18,0,0,0-4.92,0,4.55,4.55,0,0,0-1.45,2.1,8.94,8.94,0,0,0,0,5.72,4.54,4.54,0,0,0,1.45,2.08A3.81,3.81,0,0,0,509.59,170.81Z"/><path class="cls-1" d="M522.35,173.14V151.49h3.16v8h.19a10.31,10.31,0,0,1,.8-1.17,4.61,4.61,0,0,1,1.43-1.17,5.16,5.16,0,0,1,2.43-.5,6.24,6.24,0,0,1,3.51,1,6.67,6.67,0,0,1,2.43,2.86,10.47,10.47,0,0,1,.88,4.5,10.64,10.64,0,0,1-.87,4.51,6.91,6.91,0,0,1-2.41,2.89,6.27,6.27,0,0,1-3.5,1A5.18,5.18,0,0,1,528,173a4.59,4.59,0,0,1-1.46-1.16,9.22,9.22,0,0,1-.82-1.19h-.26v2.53Zm3.1-8.12a8.34,8.34,0,0,0,.5,3,4.61,4.61,0,0,0,1.43,2,4.07,4.07,0,0,0,4.68,0A4.7,4.7,0,0,0,533.5,168a8.94,8.94,0,0,0,0-5.81,4.4,4.4,0,0,0-1.44-2,4.2,4.2,0,0,0-4.7,0,4.39,4.39,0,0,0-1.43,2A8.13,8.13,0,0,0,525.45,165Z"/><path class="cls-1" d="M543.75,154.4a2,2,0,0,1-1.41-.56,1.76,1.76,0,0,1-.59-1.32,1.79,1.79,0,0,1,.59-1.34,2.06,2.06,0,0,1,2.82,0,1.79,1.79,0,0,1,.59,1.34,1.76,1.76,0,0,1-.59,1.32A2,2,0,0,1,543.75,154.4Zm-1.6,18.74V156.9h3.16v16.24Z"/><path class="cls-1" d="M554.15,151.49v21.65H551V151.49Z"/><path class="cls-1" d="M561.42,154.4a2,2,0,0,1-1.41-.56,1.75,1.75,0,0,1-.58-1.32,1.78,1.78,0,0,1,.58-1.34,2.06,2.06,0,0,1,2.82,0,1.76,1.76,0,0,1,.59,1.34,1.73,1.73,0,0,1-.59,1.32A2,2,0,0,1,561.42,154.4Zm-1.59,18.74V156.9H563v16.24Z"/><path class="cls-1" d="M573.39,173.5a6.48,6.48,0,0,1-2.79-.58,4.6,4.6,0,0,1-2-1.67,4.86,4.86,0,0,1-.73-2.7,4.39,4.39,0,0,1,.53-2.26,4,4,0,0,1,1.43-1.41,7.79,7.79,0,0,1,2-.78,20.92,20.92,0,0,1,2.26-.4l2.37-.28a3.38,3.38,0,0,0,1.32-.37.89.89,0,0,0,.41-.82v-.07a2.86,2.86,0,0,0-.78-2.15,3.14,3.14,0,0,0-2.31-.76,4,4,0,0,0-2.51.7,3.79,3.79,0,0,0-1.26,1.56l-3-.67a5.71,5.71,0,0,1,1.55-2.4,6.29,6.29,0,0,1,2.35-1.33,9.26,9.26,0,0,1,2.8-.42,10.32,10.32,0,0,1,2.07.23,6.19,6.19,0,0,1,2.05.83,4.53,4.53,0,0,1,1.57,1.72,5.93,5.93,0,0,1,.61,2.89v10.78h-3.08v-2.22h-.13a4.48,4.48,0,0,1-.92,1.2,4.74,4.74,0,0,1-1.58,1A6.12,6.12,0,0,1,573.39,173.5Zm.69-2.54a4.5,4.5,0,0,0,2.24-.52,3.54,3.54,0,0,0,1.43-1.36,3.48,3.48,0,0,0,.49-1.8v-2.09a1.56,1.56,0,0,1-.65.31,7.1,7.1,0,0,1-1.09.24l-1.2.18-1,.14a7.13,7.13,0,0,0-1.68.39,2.85,2.85,0,0,0-1.2.78,2,2,0,0,0-.45,1.36,2,2,0,0,0,.87,1.77A3.79,3.79,0,0,0,574.08,171Z"/><path class="cls-1" d="M587,173.14V156.9h3.05v2.58h.17a4,4,0,0,1,1.57-2.06,4.43,4.43,0,0,1,2.55-.76l.71,0c.27,0,.48,0,.64,0v3a4.62,4.62,0,0,0-.68-.12,6.33,6.33,0,0,0-1-.07,4.1,4.1,0,0,0-2,.47,3.52,3.52,0,0,0-1.38,1.3,3.59,3.59,0,0,0-.5,1.88v9.92Z"/><path class="cls-1" d="M601.5,154.4a2,2,0,0,1-1.41-.56,1.76,1.76,0,0,1-.59-1.32,1.79,1.79,0,0,1,.59-1.34,2.06,2.06,0,0,1,2.82,0,1.79,1.79,0,0,1,.59,1.34,1.76,1.76,0,0,1-.59,1.32A2,2,0,0,1,601.5,154.4Zm-1.6,18.74V156.9h3.16v16.24Z"/><path class="cls-1" d="M613.47,173.5a6.56,6.56,0,0,1-2.8-.58,4.66,4.66,0,0,1-2-1.67,4.86,4.86,0,0,1-.72-2.7,4.3,4.3,0,0,1,.53-2.26,4,4,0,0,1,1.43-1.41,7.58,7.58,0,0,1,2-.78,21.36,21.36,0,0,1,2.26-.4l2.37-.28a3.28,3.28,0,0,0,1.32-.37.87.87,0,0,0,.42-.82v-.07a2.86,2.86,0,0,0-.78-2.15,3.17,3.17,0,0,0-2.31-.76,4,4,0,0,0-2.51.7,3.79,3.79,0,0,0-1.26,1.56l-3-.67a5.62,5.62,0,0,1,1.55-2.4,6.22,6.22,0,0,1,2.35-1.33,9.21,9.21,0,0,1,2.8-.42,10.23,10.23,0,0,1,2.06.23,6.11,6.11,0,0,1,2,.83,4.53,4.53,0,0,1,1.57,1.72,5.93,5.93,0,0,1,.62,2.89v10.78h-3.09v-2.22h-.13a4.28,4.28,0,0,1-.92,1.2,4.69,4.69,0,0,1-1.57,1A6.12,6.12,0,0,1,613.47,173.5Zm.68-2.54a4.54,4.54,0,0,0,2.25-.52,3.62,3.62,0,0,0,1.92-3.16v-2.09a1.63,1.63,0,0,1-.65.31,7.24,7.24,0,0,1-1.1.24l-1.19.18-1,.14a6.9,6.9,0,0,0-1.68.39,2.79,2.79,0,0,0-1.2.78,2,2,0,0,0-.45,1.36,2,2,0,0,0,.86,1.77A3.81,3.81,0,0,0,614.15,171Z"/></g></g></svg>