<svg xmlns="http://www.w3.org/2000/svg" viewBox="0 0 1123.04 233"><defs><style>.cls-1{fill:#fff;}</style></defs><g id="Capa_2" data-name="Capa 2"><g id="Capa_4" data-name="Capa 4"><path id="CUSTOM" class="cls-1" d="M89,0C39.93,0,0,39.81,0,88.74a144.08,144.08,0,0,0,13.3,59.75,190.85,190.85,0,0,0,28.83,44.74c20.59,24.16,41,37.71,41.89,38.27a9.08,9.08,0,0,0,10,0c.86-.56,21.28-14.11,41.84-38.28a191.12,191.12,0,0,0,28.79-44.73,144.24,144.24,0,0,0,13.28-59.75A88.92,88.92,0,0,0,89,0Zm0,18.2a70.71,70.71,0,0,1,70.71,70.54,120.86,120.86,0,0,1-.76,13.45L139.71,90.41V69.63a9.11,9.11,0,1,0-18.21,0v9.64L93,61.86a9.09,9.09,0,0,0-9.47,0L18.85,101.16a119.57,119.57,0,0,1-.65-12.42C18.2,49.85,50,18.2,89,18.2ZM122.33,181A215.23,215.23,0,0,1,89,212.68,214.55,214.55,0,0,1,55.66,181C39.08,161.47,28,141.15,22.39,120.31l65.88-40,67,41C149.65,141.78,138.62,161.78,122.33,181ZM81.91,122v9.1a4.55,4.55,0,0,1-4.55,4.55h-9.1a4.55,4.55,0,0,1-4.55-4.55V122a4.55,4.55,0,0,1,4.55-4.55h9.1A4.55,4.55,0,0,1,81.91,122Zm31.4,0v9.1a4.55,4.55,0,0,1-4.55,4.55h-9.1a4.55,4.55,0,0,1-4.55-4.55V122a4.55,4.55,0,0,1,4.55-4.55h9.1A4.55,4.55,0,0,1,113.31,122Zm0,31.85v9.11a4.55,4.55,0,0,1-4.55,4.55h-9.1a4.55,4.55,0,0,1-4.55-4.55v-9.11a4.55,4.55,0,0,1,4.55-4.55h9.1A4.55,4.55,0,0,1,113.31,153.81Zm-31.4,0v9.11a4.55,4.55,0,0,1-4.55,4.55h-9.1a4.55,4.55,0,0,1-4.55-4.55v-9.11a4.55,4.55,0,0,1,4.55-4.55h9.1A4.55,4.55,0,0,1,81.91,153.81Z"/><path class="cls-1" d="M293.74,147.24H238.91c-1.82,0-2.73-.82-2.73-2.44V134.42c0-1.62.91-2.44,2.73-2.44h16V16.47h-16c-1.82,0-2.73-.81-2.73-2.44V3.66c0-1.63.91-2.44,2.73-2.44h64.7q22.26,0,36.45,12.51t14.18,33.76q0,21.24-13.87,32.94T301.3,92.12H273.15V132h20.59a2.2,2.2,0,0,1,2.52,2.44V144.8A2.2,2.2,0,0,1,293.74,147.24ZM273.15,77.69h27.31q35.3,0,35.29-30.1,0-15.66-10-23.39t-25.1-7.73H273.15Z"/><path class="cls-1" d="M495.18,147.24H447.71a2.2,2.2,0,0,1-2.52-2.44V134.42a2.2,2.2,0,0,1,2.52-2.44h14.7L448.76,96.8H390.15L376.5,132h14.7c1.69,0,2.53.82,2.53,2.44V144.8c0,1.62-.84,2.44-2.53,2.44H343.94a2.2,2.2,0,0,1-2.52-2.44V134.42a2.2,2.2,0,0,1,2.52-2.44H358L403.18,16.47H391.84c-1.83,0-2.73-.81-2.73-2.44V3.66c0-1.63.9-2.44,2.73-2.44H420.4q5,0,7.67,2A15.84,15.84,0,0,1,432.59,10L480.9,132h14.28a2.2,2.2,0,0,1,2.52,2.44V144.8A2.2,2.2,0,0,1,495.18,147.24ZM443.09,82.77l-23.32-60.4h-.63l-23.52,60.4Z"/><path class="cls-1" d="M622.69,147.24H507.79c-1.82,0-2.73-.82-2.73-2.44V134.42c0-1.62.91-2.44,2.73-2.44h16V16.47h-16c-1.82,0-2.73-.81-2.73-2.44V3.66c0-1.63.91-2.44,2.73-2.44H558q2.73,0,2.73,2.64v10q0,2.64-2.73,2.64H542V132h66.8V112.05c0-1.62.9-2.44,2.73-2.44H622.9a2.2,2.2,0,0,1,2.52,2.44v32.54C625.42,146.36,624.51,147.24,622.69,147.24Z"/><path class="cls-1" d="M780.23,73.52q0,33.45-20.69,54.29t-52.09,20.85q-31.41,0-52.41-21t-21-54.3Q634,40.07,655.67,20T707.34,0q30,0,51.47,20T780.23,73.52ZM669.85,116.63q16.06,15.56,37.49,15.56t37.39-15.56q16-15.55,16-42.71t-16.28-42.5q-16.29-15.36-37.08-15.35T670.16,31.42q-16.38,15.36-16.38,42.5T669.85,116.63Z"/><path class="cls-1" d="M961.09,147.24H912.57a2.2,2.2,0,0,1-2.52-2.44V134.42a2.2,2.2,0,0,1,2.52-2.44h14.07V30.71h-.21l-39.91,96q-2.52,6.09-9.24,6.1T868,126.7l-39.91-96h-.42V132h14.08c1.82,0,2.73.82,2.73,2.44V144.8c0,1.62-.91,2.44-2.73,2.44H793.46c-1.82,0-2.73-.82-2.73-2.44V134.42c0-1.62.91-2.44,2.73-2.44h16V16.47h-16c-1.82,0-2.73-.81-2.73-2.44V3.66c0-1.63.91-2.44,2.73-2.44h32.35q7.14,0,9.88,6.91L867,81.35,876.86,107h.84q5.88-15.87,9.66-25.22L918.87,8.13Q921.6,1.23,929,1.22h32.14a2.19,2.19,0,0,1,2.52,2.44V14a2.19,2.19,0,0,1-2.52,2.44H944.91V132h16.18a2.2,2.2,0,0,1,2.52,2.44V144.8A2.2,2.2,0,0,1,961.09,147.24Z"/><path class="cls-1" d="M1123,73.52q0,33.45-20.69,54.29t-52.09,20.85q-31.41,0-52.41-21t-21-54.3q0-33.24,21.64-53.28t51.67-20q30,0,51.47,20T1123,73.52Zm-110.38,43.11q16.06,15.56,37.49,15.56t37.4-15.56q16-15.55,16-42.71t-16.28-42.5Q1071,16.06,1050.15,16.07T1013,31.42q-16.38,15.36-16.38,42.5T1012.66,116.63Z"/><path class="cls-1" d="M272.26,204.28h-6.33a9.52,9.52,0,0,0-1.36-3.57,10.08,10.08,0,0,0-2.43-2.61,10.33,10.33,0,0,0-3.21-1.62,12.59,12.59,0,0,0-3.77-.55,11.66,11.66,0,0,0-6.41,1.8,12.16,12.16,0,0,0-4.46,5.3,23,23,0,0,0,0,17.07,11.92,11.92,0,0,0,4.47,5.27,11.74,11.74,0,0,0,6.38,1.79,12.83,12.83,0,0,0,3.75-.54A10.71,10.71,0,0,0,262.1,225a9.88,9.88,0,0,0,2.44-2.59,9.55,9.55,0,0,0,1.39-3.52l6.33,0a16.89,16.89,0,0,1-2,5.63,15.35,15.35,0,0,1-3.71,4.42,16.68,16.68,0,0,1-5.16,2.87,18.93,18.93,0,0,1-6.33,1,18.13,18.13,0,0,1-9.61-2.57,17.78,17.78,0,0,1-6.64-7.35,28.1,28.1,0,0,1,0-22.84,17.78,17.78,0,0,1,6.65-7.34,18.09,18.09,0,0,1,9.59-2.57,19.91,19.91,0,0,1,6.18.94,16.66,16.66,0,0,1,5.16,2.76,15.26,15.26,0,0,1,3.79,4.42A17.16,17.16,0,0,1,272.26,204.28Z"/><path class="cls-1" d="M295.14,232.94a14.31,14.31,0,0,1-7.65-2,13.49,13.49,0,0,1-5.07-5.62,18.66,18.66,0,0,1-1.8-8.43,18.88,18.88,0,0,1,1.8-8.48,13.48,13.48,0,0,1,5.07-5.64,15.54,15.54,0,0,1,15.29,0,13.48,13.48,0,0,1,5.07,5.64,18.88,18.88,0,0,1,1.8,8.48,18.66,18.66,0,0,1-1.8,8.43,13.49,13.49,0,0,1-5.07,5.62A14.28,14.28,0,0,1,295.14,232.94Zm0-5.09a7.25,7.25,0,0,0,4.7-1.5,8.91,8.91,0,0,0,2.77-4,17.19,17.19,0,0,0,0-11,9,9,0,0,0-2.77-4,7.16,7.16,0,0,0-4.7-1.53,7.25,7.25,0,0,0-4.74,1.53,8.92,8.92,0,0,0-2.78,4,17.19,17.19,0,0,0,0,11,8.85,8.85,0,0,0,2.78,4A7.35,7.35,0,0,0,295.16,227.85Z"/><path class="cls-1" d="M325.21,213.81v18.5h-6.06V201.16H325v5.07h.38a8.92,8.92,0,0,1,3.38-4,10.43,10.43,0,0,1,5.81-1.51,11.4,11.4,0,0,1,5.58,1.33,9.05,9.05,0,0,1,3.71,3.95,14.26,14.26,0,0,1,1.32,6.47v19.81h-6.07V213.23a7.58,7.58,0,0,0-1.76-5.31,6.29,6.29,0,0,0-4.85-1.91,7.53,7.53,0,0,0-3.74.91,6.52,6.52,0,0,0-2.58,2.67A8.91,8.91,0,0,0,325.21,213.81Z"/><path class="cls-1" d="M379.34,208.77l-5.5,1a6.79,6.79,0,0,0-1.08-2,5.67,5.67,0,0,0-2-1.56,7.15,7.15,0,0,0-3.14-.61,7.55,7.55,0,0,0-4.3,1.15,3.42,3.42,0,0,0-1.73,2.95,3.09,3.09,0,0,0,1.16,2.51,9.19,9.19,0,0,0,3.73,1.56l4.95,1.14a13.25,13.25,0,0,1,6.41,3.06,7.22,7.22,0,0,1,2.11,5.38,8.11,8.11,0,0,1-1.62,5,10.51,10.51,0,0,1-4.48,3.42,16.7,16.7,0,0,1-6.64,1.24,15,15,0,0,1-8.54-2.24,9.41,9.41,0,0,1-4.05-6.38l5.86-.89a5.51,5.51,0,0,0,2.25,3.45,7.69,7.69,0,0,0,4.44,1.17,8.19,8.19,0,0,0,4.77-1.25,3.64,3.64,0,0,0,1.78-3.05,3.2,3.2,0,0,0-1.08-2.45,7.13,7.13,0,0,0-3.32-1.5l-5.27-1.16a12.64,12.64,0,0,1-6.44-3.16,7.62,7.62,0,0,1-2.08-5.5,7.8,7.8,0,0,1,1.54-4.82,10.22,10.22,0,0,1,4.26-3.24,15.63,15.63,0,0,1,6.23-1.17q5,0,7.94,2.19A10.17,10.17,0,0,1,379.34,208.77Z"/><path class="cls-1" d="M403.88,201.16V206h-17v-4.87Zm-12.45-7.46h6.06v29.46a5.29,5.29,0,0,0,.53,2.65,2.64,2.64,0,0,0,1.37,1.2,5.17,5.17,0,0,0,1.83.31,6.93,6.93,0,0,0,1.28-.1l.85-.16,1.1,5a12.09,12.09,0,0,1-1.51.41,12.29,12.29,0,0,1-2.43.23,10.56,10.56,0,0,1-4.46-.85,7.63,7.63,0,0,1-3.35-2.76,8.09,8.09,0,0,1-1.27-4.68Z"/><path class="cls-1" d="M413.31,232.31V201.16h5.86v5h.33a7.53,7.53,0,0,1,3-4,8.62,8.62,0,0,1,4.89-1.44c.38,0,.83,0,1.35,0s.93.06,1.23.1v5.8a11.28,11.28,0,0,0-1.3-.24,14.54,14.54,0,0,0-1.86-.13,8,8,0,0,0-3.83.9,6.9,6.9,0,0,0-2.64,2.5,6.8,6.8,0,0,0-1,3.62v19Z"/><path class="cls-1" d="M457.72,219.39V201.16h6.09v31.15h-6v-5.4h-.32a9.63,9.63,0,0,1-3.44,4.15,10,10,0,0,1-5.87,1.65,10.45,10.45,0,0,1-5.3-1.32,9.08,9.08,0,0,1-3.61-3.95A14.39,14.39,0,0,1,438,221V201.16h6.06v19.08a7.1,7.1,0,0,0,1.77,5.07,6,6,0,0,0,4.58,1.89,7.6,7.6,0,0,0,3.4-.85,7.24,7.24,0,0,0,2.82-2.58A7.71,7.71,0,0,0,457.72,219.39Z"/><path class="cls-1" d="M487.8,232.94a14.27,14.27,0,0,1-7.78-2.06,13.51,13.51,0,0,1-5-5.69,20.69,20.69,0,0,1,0-16.7,13.72,13.72,0,0,1,5-5.69,14.08,14.08,0,0,1,7.65-2.05,14.69,14.69,0,0,1,6.32,1.31,11.68,11.68,0,0,1,4.5,3.66,11,11,0,0,1,2,5.5h-5.9a7,7,0,0,0-2.22-3.77,6.57,6.57,0,0,0-4.63-1.58,7.55,7.55,0,0,0-4.43,1.32,8.63,8.63,0,0,0-3,3.78,14.32,14.32,0,0,0-1.06,5.77,15.19,15.19,0,0,0,1,5.88,8.73,8.73,0,0,0,2.93,3.83,7.49,7.49,0,0,0,4.47,1.36,7.58,7.58,0,0,0,3.13-.64,6.39,6.39,0,0,0,2.37-1.84,6.75,6.75,0,0,0,1.35-2.88h5.9a11.22,11.22,0,0,1-6.35,9.13A14.47,14.47,0,0,1,487.8,232.94Z"/><path class="cls-1" d="M523,232.94a14.25,14.25,0,0,1-7.77-2.06,13.44,13.44,0,0,1-5-5.69,20.58,20.58,0,0,1,0-16.7,13.72,13.72,0,0,1,5-5.69,14.05,14.05,0,0,1,7.64-2.05,14.71,14.71,0,0,1,6.33,1.31,11.64,11.64,0,0,1,4.49,3.66,11.15,11.15,0,0,1,2,5.5h-5.9a7.08,7.08,0,0,0-2.22-3.77,6.59,6.59,0,0,0-4.63-1.58,7.6,7.6,0,0,0-4.44,1.32,8.78,8.78,0,0,0-3,3.78,14.5,14.5,0,0,0-1,5.77,15.19,15.19,0,0,0,1,5.88,8.81,8.81,0,0,0,2.93,3.83,8,8,0,0,0,7.61.72,6.39,6.39,0,0,0,2.37-1.84,7,7,0,0,0,1.35-2.88h5.9a11.45,11.45,0,0,1-2,5.4,11.29,11.29,0,0,1-4.39,3.73A14.44,14.44,0,0,1,523,232.94Z"/><path class="cls-1" d="M548.07,196.35a3.78,3.78,0,0,1-2.7-1.06,3.45,3.45,0,0,1,0-5.11,4,4,0,0,1,5.41,0,3.45,3.45,0,0,1,0,5.11A3.79,3.79,0,0,1,548.07,196.35Zm-3.06,36V201.16h6.06v31.15Z"/><path class="cls-1" d="M575.09,232.94a14.31,14.31,0,0,1-7.65-2,13.56,13.56,0,0,1-5.07-5.62,18.66,18.66,0,0,1-1.8-8.43,18.88,18.88,0,0,1,1.8-8.48,13.55,13.55,0,0,1,5.07-5.64,15.54,15.54,0,0,1,15.29,0,13.48,13.48,0,0,1,5.07,5.64,18.75,18.75,0,0,1,1.81,8.48,18.53,18.53,0,0,1-1.81,8.43,13.49,13.49,0,0,1-5.07,5.62A14.25,14.25,0,0,1,575.09,232.94Zm0-5.09a7.25,7.25,0,0,0,4.7-1.5,8.83,8.83,0,0,0,2.77-4,17.19,17.19,0,0,0,0-11,8.9,8.9,0,0,0-2.77-4,7.16,7.16,0,0,0-4.7-1.53,7.25,7.25,0,0,0-4.74,1.53,9,9,0,0,0-2.78,4,17.19,17.19,0,0,0,0,11,8.93,8.93,0,0,0,2.78,4A7.35,7.35,0,0,0,575.11,227.85Z"/><path class="cls-1" d="M605.16,213.81v18.5H599.1V201.16h5.82v5.07h.38a8.92,8.92,0,0,1,3.38-4,10.45,10.45,0,0,1,5.81-1.51,11.4,11.4,0,0,1,5.58,1.33,9.05,9.05,0,0,1,3.71,3.95,14.26,14.26,0,0,1,1.32,6.47v19.81H619V213.23a7.53,7.53,0,0,0-1.76-5.31,6.29,6.29,0,0,0-4.85-1.91,7.53,7.53,0,0,0-3.74.91,6.43,6.43,0,0,0-2.57,2.67A8.8,8.8,0,0,0,605.16,213.81Z"/><path class="cls-1" d="M649.37,232.94a15.17,15.17,0,0,1-7.92-2,13.22,13.22,0,0,1-5.11-5.58,18.77,18.77,0,0,1-1.79-8.44,19,19,0,0,1,1.79-8.44A13.43,13.43,0,0,1,649,200.75a15.34,15.34,0,0,1,5.11.88,12.26,12.26,0,0,1,4.44,2.74,12.87,12.87,0,0,1,3.1,4.83,20.2,20.2,0,0,1,1.14,7.21v2.15H638V214h18.81a9,9,0,0,0-1-4.25,7.41,7.41,0,0,0-2.73-2.93,7.65,7.65,0,0,0-4.1-1.08,7.9,7.9,0,0,0-4.45,1.25,8.31,8.31,0,0,0-2.92,3.25,9.24,9.24,0,0,0-1,4.32v3.55a11.65,11.65,0,0,0,1.11,5.32,7.68,7.68,0,0,0,3.09,3.33,9.08,9.08,0,0,0,4.64,1.15,9.55,9.55,0,0,0,3.15-.5,6.73,6.73,0,0,0,2.45-1.49,6.44,6.44,0,0,0,1.58-2.45l5.74,1a10.37,10.37,0,0,1-2.46,4.43,11.9,11.9,0,0,1-4.44,2.94A16.53,16.53,0,0,1,649.37,232.94Z"/><path class="cls-1" d="M695.57,208.77l-5.5,1a6.56,6.56,0,0,0-1.08-2,5.58,5.58,0,0,0-2-1.56,7.12,7.12,0,0,0-3.14-.61,7.55,7.55,0,0,0-4.3,1.15,3.41,3.41,0,0,0-1.72,2.95,3.08,3.08,0,0,0,1.15,2.51,9.25,9.25,0,0,0,3.73,1.56l4.95,1.14a13.25,13.25,0,0,1,6.41,3.06,7.19,7.19,0,0,1,2.11,5.38,8.16,8.16,0,0,1-1.61,5,10.61,10.61,0,0,1-4.49,3.42,16.7,16.7,0,0,1-6.64,1.24,14.93,14.93,0,0,1-8.53-2.24,9.39,9.39,0,0,1-4.06-6.38l5.86-.89a5.59,5.59,0,0,0,2.25,3.45,7.71,7.71,0,0,0,4.44,1.17,8.19,8.19,0,0,0,4.77-1.25,3.64,3.64,0,0,0,1.78-3.05,3.2,3.2,0,0,0-1.08-2.45,7.13,7.13,0,0,0-3.32-1.5l-5.27-1.16a12.64,12.64,0,0,1-6.44-3.16,7.66,7.66,0,0,1-2.08-5.5,7.86,7.86,0,0,1,1.54-4.82,10.22,10.22,0,0,1,4.26-3.24,15.63,15.63,0,0,1,6.23-1.17q5,0,8,2.19A10.21,10.21,0,0,1,695.57,208.77Z"/><path class="cls-1" d="M735.52,232.9a15.78,15.78,0,0,1-7.18-1.52,11.31,11.31,0,0,1-4.64-4.15,11.11,11.11,0,0,1-1.62-5.95,9.44,9.44,0,0,1,1-4.51,13.54,13.54,0,0,1,2.94-3.66,43.56,43.56,0,0,1,4.36-3.39l6.7-4.73a10.53,10.53,0,0,0,2.65-2.36,4.91,4.91,0,0,0,1-3.09,4.07,4.07,0,0,0-1.26-2.8,4.41,4.41,0,0,0-3.37-1.34,4.64,4.64,0,0,0-2.56.71,5.19,5.19,0,0,0-1.73,1.82,4.68,4.68,0,0,0-.61,2.32,5.87,5.87,0,0,0,.78,2.86,20,20,0,0,0,2,3c.83,1,1.69,2.08,2.6,3.17l19.28,23.06H749l-16-18.76q-2-2.37-3.73-4.47a22.22,22.22,0,0,1-2.79-4.26,10.42,10.42,0,0,1-1.06-4.67,9.82,9.82,0,0,1,1.3-5.08,9.29,9.29,0,0,1,3.66-3.48,12.75,12.75,0,0,1,11,0,9.11,9.11,0,0,1,3.54,3.3,8.46,8.46,0,0,1,1.25,4.5,9.37,9.37,0,0,1-1.47,5.22,16,16,0,0,1-4,4.14l-8.34,6.15a11.28,11.28,0,0,0-3.37,3.52,5.25,5.25,0,0,0,0,6,6.77,6.77,0,0,0,2.6,2.43,8.05,8.05,0,0,0,3.92.92,10.78,10.78,0,0,0,4.52-1,13,13,0,0,0,4-2.89,13.82,13.82,0,0,0,2.85-4.52,15.82,15.82,0,0,0,1.05-5.9h5.48a21.76,21.76,0,0,1-.91,6.78,15.73,15.73,0,0,1-2.2,4.5,16.51,16.51,0,0,1-2.43,2.71c-.24.22-.47.43-.69.65s-.44.43-.69.65a12.72,12.72,0,0,1-5.1,3.14A18.12,18.12,0,0,1,735.52,232.9Z"/><path class="cls-1" d="M788,190.78v41.53H781.7V190.78Z"/><path class="cls-1" d="M805.41,213.81v18.5h-6.06V201.16h5.82v5.07h.38a8.92,8.92,0,0,1,3.38-4,10.45,10.45,0,0,1,5.81-1.51,11.4,11.4,0,0,1,5.58,1.33A9.05,9.05,0,0,1,824,206a14.26,14.26,0,0,1,1.32,6.47v19.81h-6.07V213.23a7.53,7.53,0,0,0-1.76-5.31,6.29,6.29,0,0,0-4.85-1.91,7.53,7.53,0,0,0-3.74.91,6.43,6.43,0,0,0-2.57,2.67A8.8,8.8,0,0,0,805.41,213.81Z"/><path class="cls-1" d="M836.2,232.31V201.16H842v5.07h.38a8,8,0,0,1,3.19-4,9.38,9.38,0,0,1,5.29-1.46,9,9,0,0,1,5.24,1.47,8.63,8.63,0,0,1,3.14,4h.32a8.8,8.8,0,0,1,3.55-4,10.82,10.82,0,0,1,5.8-1.5,9.43,9.43,0,0,1,6.92,2.66q2.68,2.66,2.69,8v20.89h-6.06V212q0-3.17-1.73-4.58a6.24,6.24,0,0,0-4.11-1.42A5.9,5.9,0,0,0,862,207.8a6.69,6.69,0,0,0-1.64,4.66v19.85h-6V211.6a5.44,5.44,0,0,0-1.58-4.07,5.65,5.65,0,0,0-4.12-1.54,5.87,5.87,0,0,0-3.17.9,6.71,6.71,0,0,0-2.34,2.5,7.69,7.69,0,0,0-.88,3.72v19.2Z"/><path class="cls-1" d="M902.51,232.94a14.25,14.25,0,0,1-7.64-2,13.49,13.49,0,0,1-5.07-5.62,18.53,18.53,0,0,1-1.81-8.43,18.75,18.75,0,0,1,1.81-8.48,13.48,13.48,0,0,1,5.07-5.64,15.54,15.54,0,0,1,15.29,0,13.62,13.62,0,0,1,5.07,5.64,18.88,18.88,0,0,1,1.8,8.48,18.66,18.66,0,0,1-1.8,8.43,13.62,13.62,0,0,1-5.07,5.62A14.31,14.31,0,0,1,902.51,232.94Zm0-5.09a7.3,7.3,0,0,0,4.71-1.5,8.89,8.89,0,0,0,2.76-4,17,17,0,0,0,0-11,9,9,0,0,0-2.76-4,8,8,0,0,0-9.44,0,8.92,8.92,0,0,0-2.78,4,17.19,17.19,0,0,0,0,11,8.85,8.85,0,0,0,2.78,4A7.34,7.34,0,0,0,902.53,227.85Z"/><path class="cls-1" d="M927,232.31V190.78h6.06v15.43h.37A16.84,16.84,0,0,1,935,204a8.65,8.65,0,0,1,2.76-2.24,9.72,9.72,0,0,1,4.66-1,12.14,12.14,0,0,1,6.73,1.91,12.81,12.81,0,0,1,4.66,5.5,20.08,20.08,0,0,1,1.69,8.64,20.3,20.3,0,0,1-1.68,8.64,13.05,13.05,0,0,1-4.63,5.54,11.92,11.92,0,0,1-6.71,1.94,9.77,9.77,0,0,1-4.63-1,8.72,8.72,0,0,1-2.81-2.23,16.09,16.09,0,0,1-1.56-2.27h-.51v4.85ZM933,216.74a16.08,16.08,0,0,0,.95,5.75,8.77,8.77,0,0,0,2.76,3.87,7.79,7.79,0,0,0,9-.06,9,9,0,0,0,2.76-4,15.72,15.72,0,0,0,1-5.61,15.51,15.51,0,0,0-.93-5.54,8.48,8.48,0,0,0-2.75-3.87,8,8,0,0,0-9-.06,8.29,8.29,0,0,0-2.75,3.79A15.84,15.84,0,0,0,933,216.74Z"/><path class="cls-1" d="M968.06,196.35a3.79,3.79,0,0,1-2.71-1.06,3.47,3.47,0,0,1,0-5.11,4,4,0,0,1,5.41,0,3.45,3.45,0,0,1,0,5.11A3.78,3.78,0,0,1,968.06,196.35Zm-3.06,36V201.16h6.06v31.15Z"/><path class="cls-1" d="M988,190.78v41.53H982V190.78Z"/><path class="cls-1" d="M1002,196.35a3.79,3.79,0,0,1-2.71-1.06,3.47,3.47,0,0,1,0-5.11,4,4,0,0,1,5.42,0,3.47,3.47,0,0,1,0,5.11A3.81,3.81,0,0,1,1002,196.35Zm-3.06,36V201.16H1005v31.15Z"/><path class="cls-1" d="M1024.93,233a12.6,12.6,0,0,1-5.36-1.11,8.85,8.85,0,0,1-3.78-3.21,9.26,9.26,0,0,1-1.39-5.17,8.32,8.32,0,0,1,1-4.34,7.44,7.44,0,0,1,2.73-2.7A14.5,14.5,0,0,1,1022,215a38.57,38.57,0,0,1,4.34-.77l4.54-.54a6.39,6.39,0,0,0,2.53-.7,1.7,1.7,0,0,0,.79-1.58v-.14a5.5,5.5,0,0,0-1.49-4.12,6.1,6.1,0,0,0-4.43-1.46,7.7,7.7,0,0,0-4.81,1.35,7.39,7.39,0,0,0-2.43,3l-5.69-1.3a10.89,10.89,0,0,1,3-4.59,11.93,11.93,0,0,1,4.51-2.55,17.63,17.63,0,0,1,5.37-.81,19.6,19.6,0,0,1,4,.44,11.79,11.79,0,0,1,3.93,1.59,8.77,8.77,0,0,1,3,3.3,11.35,11.35,0,0,1,1.18,5.54v20.69h-5.92v-4.26h-.25a8.75,8.75,0,0,1-1.76,2.31,9.39,9.39,0,0,1-3,1.89A11.75,11.75,0,0,1,1024.93,233Zm1.32-4.87a8.76,8.76,0,0,0,4.3-1,7,7,0,0,0,2.74-2.61,6.72,6.72,0,0,0,.94-3.46v-4a3.07,3.07,0,0,1-1.24.6,16.57,16.57,0,0,1-2.1.46c-.79.13-1.55.25-2.29.35l-1.87.25a15,15,0,0,0-3.21.75,5.48,5.48,0,0,0-2.31,1.51,3.81,3.81,0,0,0-.87,2.61A3.87,3.87,0,0,0,1022,227,7.34,7.34,0,0,0,1026.25,228.13Z"/><path class="cls-1" d="M1051.11,232.31V201.16H1057v5h.32a7.6,7.6,0,0,1,3-4,8.62,8.62,0,0,1,4.89-1.44c.38,0,.83,0,1.35,0s.93.06,1.23.1v5.8a11.74,11.74,0,0,0-1.3-.24,14.54,14.54,0,0,0-1.86-.13,8,8,0,0,0-3.83.9,6.82,6.82,0,0,0-3.62,6.12v19Z"/><path class="cls-1" d="M1078.85,196.35a3.78,3.78,0,0,1-2.7-1.06,3.45,3.45,0,0,1,0-5.11,4,4,0,0,1,5.41,0,3.45,3.45,0,0,1,0,5.11A3.79,3.79,0,0,1,1078.85,196.35Zm-3.06,36V201.16h6.06v31.15Z"/><path class="cls-1" d="M1101.81,233a12.55,12.55,0,0,1-5.35-1.11,8.73,8.73,0,0,1-3.78-3.21,9.17,9.17,0,0,1-1.39-5.17,8.42,8.42,0,0,1,1-4.34,7.47,7.47,0,0,1,2.74-2.7,14.43,14.43,0,0,1,3.85-1.5,39,39,0,0,1,4.34-.77l4.54-.54a6.45,6.45,0,0,0,2.54-.7,1.7,1.7,0,0,0,.79-1.58v-.14a5.53,5.53,0,0,0-1.49-4.12,6.1,6.1,0,0,0-4.43-1.46,7.73,7.73,0,0,0-4.82,1.35,7.36,7.36,0,0,0-2.42,3l-5.7-1.3a11.08,11.08,0,0,1,3-4.59,12.09,12.09,0,0,1,4.51-2.55,17.74,17.74,0,0,1,5.38-.81,19.58,19.58,0,0,1,4,.44,11.92,11.92,0,0,1,3.94,1.59,8.86,8.86,0,0,1,3,3.3,11.47,11.47,0,0,1,1.17,5.54v20.69h-5.92v-4.26H1111a8.6,8.6,0,0,1-1.77,2.31,9.28,9.28,0,0,1-3,1.89A11.71,11.71,0,0,1,1101.81,233Zm1.32-4.87a8.8,8.8,0,0,0,4.31-1,7,7,0,0,0,2.74-2.61,6.72,6.72,0,0,0,.94-3.46v-4a3.13,3.13,0,0,1-1.25.6,15.83,15.83,0,0,1-2.1.46c-.78.13-1.54.25-2.29.35l-1.86.25a15.06,15.06,0,0,0-3.22.75,5.61,5.61,0,0,0-2.31,1.51,4.34,4.34,0,0,0,.8,6A7.34,7.34,0,0,0,1103.13,228.13Z"/></g></g></svg>