<svg xmlns="http://www.w3.org/2000/svg" viewBox="0 0 1199.4 233.07"><defs><style>.cls-1{fill:#fff;}</style></defs><g id="Capa_2" data-name="Capa 2"><g id="Capa_4" data-name="Capa 4"><path id="CUSTOM" class="cls-1" d="M89,0C39.93,0,0,39.81,0,88.74a144.08,144.08,0,0,0,13.3,59.75,190.85,190.85,0,0,0,28.83,44.74c20.59,24.16,41,37.71,41.89,38.27a9.08,9.08,0,0,0,10,0c.86-.56,21.28-14.11,41.84-38.28a191.12,191.12,0,0,0,28.79-44.73,144.24,144.24,0,0,0,13.28-59.75A88.92,88.92,0,0,0,89,0Zm0,18.2a70.71,70.71,0,0,1,70.71,70.54,120.86,120.86,0,0,1-.76,13.45L139.71,90.41V69.63a9.11,9.11,0,1,0-18.21,0v9.64L93,61.86a9.09,9.09,0,0,0-9.47,0L18.85,101.16a119.57,119.57,0,0,1-.65-12.42C18.2,49.85,50,18.2,89,18.2ZM122.33,181A215.23,215.23,0,0,1,89,212.68,214.55,214.55,0,0,1,55.66,181C39.08,161.47,28,141.15,22.39,120.31l65.88-40,67,41C149.65,141.78,138.62,161.78,122.33,181ZM81.91,122v9.1a4.55,4.55,0,0,1-4.55,4.55h-9.1a4.55,4.55,0,0,1-4.55-4.55V122a4.55,4.55,0,0,1,4.55-4.55h9.1A4.55,4.55,0,0,1,81.91,122Zm31.4,0v9.1a4.55,4.55,0,0,1-4.55,4.55h-9.1a4.55,4.55,0,0,1-4.55-4.55V122a4.55,4.55,0,0,1,4.55-4.55h9.1A4.55,4.55,0,0,1,113.31,122Zm0,31.85v9.11a4.55,4.55,0,0,1-4.55,4.55h-9.1a4.55,4.55,0,0,1-4.55-4.55v-9.11a4.55,4.55,0,0,1,4.55-4.55h9.1A4.55,4.55,0,0,1,113.31,153.81Zm-31.4,0v9.11a4.55,4.55,0,0,1-4.55,4.55h-9.1a4.55,4.55,0,0,1-4.55-4.55v-9.11a4.55,4.55,0,0,1,4.55-4.55h9.1A4.55,4.55,0,0,1,81.91,153.81Z"/><path class="cls-1" d="M297.49,152.42H240.87q-2.82,0-2.82-2.52V139.19q0-2.52,2.82-2.52h16.49V17.39H240.87q-2.82,0-2.82-2.52V4.16q0-2.52,2.82-2.52h66.81q23,0,37.64,12.91T360,49.41q0,21.95-14.32,34T305.3,95.51H276.23v41.16h21.26c1.73,0,2.6.84,2.6,2.52V149.9C300.09,151.58,299.22,152.42,297.49,152.42ZM276.23,80.6h28.2q36.44,0,36.44-31.08,0-16.17-10.3-24.15t-25.92-8H276.23Z"/><path class="cls-1" d="M514.62,152.42h-49c-1.73,0-2.6-.84-2.6-2.52V139.19c0-1.68.87-2.52,2.6-2.52h15.19l-14.1-36.33H406.16l-14.1,36.33h15.19c1.73,0,2.6.84,2.6,2.52V149.9c0,1.68-.87,2.52-2.6,2.52H358.44c-1.73,0-2.6-.84-2.6-2.52V139.19c0-1.68.87-2.52,2.6-2.52H373L419.61,17.39H407.9q-2.82,0-2.82-2.52V4.16q0-2.52,2.82-2.52h29.5c3.47,0,6.1.7,7.91,2.1A16.25,16.25,0,0,1,450,10.67l49.89,126h14.75c1.73,0,2.6.84,2.6,2.52V149.9C517.22,151.58,516.35,152.42,514.62,152.42Zm-53.8-66.57L436.75,23.48h-.66L411.8,85.85Z"/><path class="cls-1" d="M655.39,152.42H536.74q-2.82,0-2.82-2.52V139.19q0-2.52,2.82-2.52h16.49V17.39H536.74q-2.82,0-2.82-2.52V4.16q0-2.52,2.82-2.52h51.84q2.82,0,2.82,2.73V14.66q0,2.73-2.82,2.73H572.1V136.67h69V116.09c0-1.68.94-2.52,2.83-2.52h11.71c1.73,0,2.6.84,2.6,2.52v33.6Q658.21,152.42,655.39,152.42Z"/><path class="cls-1" d="M827.18,76.29q0,34.54-21.36,56.07T752,153.89q-32.43,0-54.12-21.74T676.21,76.08q0-34.33,22.35-55T751.92.38q31,0,53.14,20.68T827.18,76.29Zm-114,44.52q16.59,16.06,38.72,16.07t38.61-16.07Q807,104.74,807,76.71T790.2,32.82Q773.39,17,751.92,17t-38.4,15.85Q696.6,48.68,696.6,76.71T713.2,120.81Z"/><path class="cls-1" d="M1023.05,152.42H973c-1.74,0-2.6-.84-2.6-2.52V139.19c0-1.68.86-2.52,2.6-2.52h14.53V32.09h-.22l-41.21,99.12c-1.73,4.2-4.92,6.3-9.54,6.3s-7.81-2.1-9.55-6.3L885.75,32.09h-.43V136.67h14.53q2.82,0,2.82,2.52V149.9q0,2.52-2.82,2.52H850q-2.82,0-2.82-2.52V139.19q0-2.52,2.82-2.52h16.49V17.39H850q-2.82,0-2.82-2.52V4.16q0-2.52,2.82-2.52h33.4q7.38,0,10.2,7.14l32.32,75.6,10.19,26.46h.87q6.07-16.38,10-26l32.54-76q2.81-7.14,10.41-7.14h33.18q2.61,0,2.61,2.52V14.87q0,2.52-2.61,2.52h-16.7V136.67h16.7q2.61,0,2.61,2.52V149.9Q1025.66,152.42,1023.05,152.42Z"/><path class="cls-1" d="M1199.4,76.29q0,34.54-21.36,56.07t-53.8,21.53q-32.43,0-54.12-21.74t-21.69-56.07q0-34.33,22.35-55T1124.14.38q31,0,53.14,20.68T1199.4,76.29Zm-114,44.52q16.59,16.06,38.72,16.07t38.61-16.07q16.47-16.07,16.48-44.1t-16.81-43.89Q1145.61,17,1124.14,17t-38.4,15.85q-16.92,15.85-16.92,43.89T1085.42,120.81Z"/><path class="cls-1" d="M276.27,201.74h-6.9a10.52,10.52,0,0,0-1.49-3.89,10.76,10.76,0,0,0-2.65-2.85,11.16,11.16,0,0,0-3.51-1.77,13.78,13.78,0,0,0-4.1-.6,12.66,12.66,0,0,0-7,2,13.35,13.35,0,0,0-4.87,5.77,25.26,25.26,0,0,0,0,18.63,13.13,13.13,0,0,0,4.88,5.75,12.78,12.78,0,0,0,7,1.95,14,14,0,0,0,4.08-.59,11.36,11.36,0,0,0,3.5-1.74,10.59,10.59,0,0,0,4.19-6.65l6.9,0a18.44,18.44,0,0,1-2.14,6.14,16.93,16.93,0,0,1-4.05,4.82,18.3,18.3,0,0,1-5.63,3.13,20.72,20.72,0,0,1-6.9,1.11,19.8,19.8,0,0,1-10.48-2.8,19.37,19.37,0,0,1-7.25-8,30.67,30.67,0,0,1,0-24.92,19.37,19.37,0,0,1,7.26-8,19.68,19.68,0,0,1,10.46-2.8,21.34,21.34,0,0,1,6.74,1,18.17,18.17,0,0,1,5.63,3,16.89,16.89,0,0,1,4.14,4.82A18.94,18.94,0,0,1,276.27,201.74Z"/><path class="cls-1" d="M301.23,233a15.64,15.64,0,0,1-8.35-2.19,14.82,14.82,0,0,1-5.53-6.13,20.34,20.34,0,0,1-2-9.2,20.59,20.59,0,0,1,2-9.25,14.82,14.82,0,0,1,5.53-6.15,17,17,0,0,1,16.69,0,14.82,14.82,0,0,1,5.53,6.15,20.59,20.59,0,0,1,2,9.25,20.34,20.34,0,0,1-2,9.2,14.82,14.82,0,0,1-5.53,6.13A15.63,15.63,0,0,1,301.23,233Zm0-5.55a8,8,0,0,0,5.13-1.64,9.64,9.64,0,0,0,3-4.36,18.77,18.77,0,0,0,0-12,9.82,9.82,0,0,0-3-4.4,7.9,7.9,0,0,0-5.13-1.66,8,8,0,0,0-5.17,1.66,9.84,9.84,0,0,0-3,4.4,18.77,18.77,0,0,0,0,12,9.66,9.66,0,0,0,3,4.36A8,8,0,0,0,301.25,227.45Z"/><path class="cls-1" d="M334,212.14v20.18h-6.62v-34h6.35v5.53h.42a9.7,9.7,0,0,1,3.68-4.34,11.42,11.42,0,0,1,6.34-1.64,12.41,12.41,0,0,1,6.09,1.45,9.77,9.77,0,0,1,4,4.31,15.53,15.53,0,0,1,1.44,7v21.62h-6.61V211.5a8.22,8.22,0,0,0-1.93-5.79,6.82,6.82,0,0,0-5.28-2.09,8.29,8.29,0,0,0-4.09,1,7.11,7.11,0,0,0-2.81,2.91A9.66,9.66,0,0,0,334,212.14Z"/><path class="cls-1" d="M393.09,206.63l-6,1.06a7.55,7.55,0,0,0-1.18-2.19,6.07,6.07,0,0,0-2.18-1.7,7.92,7.92,0,0,0-3.43-.66,8.24,8.24,0,0,0-4.69,1.25,3.72,3.72,0,0,0-1.88,3.22,3.38,3.38,0,0,0,1.26,2.74,10.24,10.24,0,0,0,4.07,1.7l5.4,1.24a14.55,14.55,0,0,1,7,3.34,7.87,7.87,0,0,1,2.3,5.86,8.94,8.94,0,0,1-1.76,5.44,11.65,11.65,0,0,1-4.89,3.72,18.16,18.16,0,0,1-7.24,1.35,16.3,16.3,0,0,1-9.32-2.44,10.24,10.24,0,0,1-4.42-7l6.39-1A6.1,6.1,0,0,0,375,226.4a8.39,8.39,0,0,0,4.84,1.27,8.9,8.9,0,0,0,5.2-1.36A4,4,0,0,0,387,223a3.51,3.51,0,0,0-1.19-2.68,7.94,7.94,0,0,0-3.61-1.63l-5.76-1.26q-4.75-1.09-7-3.46a8.3,8.3,0,0,1-2.27-6,8.54,8.54,0,0,1,1.68-5.26,11,11,0,0,1,4.65-3.53,17.06,17.06,0,0,1,6.79-1.28c3.67,0,6.56.8,8.67,2.38A11.21,11.21,0,0,1,393.09,206.63Z"/><path class="cls-1" d="M419.86,198.34v5.31H401.3v-5.31Zm-13.59-8.14h6.62v32.14a5.8,5.8,0,0,0,.57,2.89,2.94,2.94,0,0,0,1.5,1.3,5.64,5.64,0,0,0,2,.34,7.19,7.19,0,0,0,1.39-.11l.93-.17,1.2,5.46a12.37,12.37,0,0,1-1.64.46,14.48,14.48,0,0,1-2.66.25,11.58,11.58,0,0,1-4.86-.93,8.31,8.31,0,0,1-3.65-3,8.84,8.84,0,0,1-1.4-5.11Z"/><path class="cls-1" d="M430.15,232.32v-34h6.39v5.39h.35a8.27,8.27,0,0,1,3.29-4.32,9.39,9.39,0,0,1,5.34-1.58c.42,0,.91,0,1.47,0s1,.07,1.34.11v6.33a12.59,12.59,0,0,0-1.41-.25,14,14,0,0,0-2-.15,8.62,8.62,0,0,0-4.17,1,7.37,7.37,0,0,0-3.95,6.67v20.75Z"/><path class="cls-1" d="M478.6,218.23V198.34h6.64v34h-6.51v-5.89h-.35a10.56,10.56,0,0,1-3.75,4.53,10.92,10.92,0,0,1-6.41,1.8,11.3,11.3,0,0,1-5.78-1.45,9.93,9.93,0,0,1-3.94-4.3,15.71,15.71,0,0,1-1.43-7.06V198.34h6.62v20.81a7.77,7.77,0,0,0,1.92,5.53,6.52,6.52,0,0,0,5,2.06,8.18,8.18,0,0,0,3.71-.93,7.85,7.85,0,0,0,3.07-2.81A8.45,8.45,0,0,0,478.6,218.23Z"/><path class="cls-1" d="M511.41,233a15.57,15.57,0,0,1-8.48-2.24,14.73,14.73,0,0,1-5.46-6.21,22.52,22.52,0,0,1,0-18.22,15,15,0,0,1,5.48-6.2,15.29,15.29,0,0,1,8.34-2.24,16.08,16.08,0,0,1,6.91,1.43,12.57,12.57,0,0,1,4.9,4,12.22,12.22,0,0,1,2.22,6h-6.44a7.71,7.71,0,0,0-2.42-4.11,7.17,7.17,0,0,0-5.05-1.73,8.19,8.19,0,0,0-4.84,1.45A9.45,9.45,0,0,0,503.4,209a16,16,0,0,0-1.15,6.3,16.62,16.62,0,0,0,1.13,6.41,9.42,9.42,0,0,0,3.2,4.18,8.7,8.7,0,0,0,8.29.79,7,7,0,0,0,2.59-2,7.67,7.67,0,0,0,1.47-3.14h6.44a12.53,12.53,0,0,1-2.15,5.88,12.3,12.3,0,0,1-4.79,4.07A15.61,15.61,0,0,1,511.41,233Z"/><path class="cls-1" d="M549.78,233a15.63,15.63,0,0,1-8.49-2.24,14.71,14.71,0,0,1-5.45-6.21,22.57,22.57,0,0,1,0-18.22,15,15,0,0,1,5.49-6.2,15.29,15.29,0,0,1,8.34-2.24,16,16,0,0,1,6.9,1.43,12.5,12.5,0,0,1,4.9,4,12.13,12.13,0,0,1,2.23,6H557.3a7.73,7.73,0,0,0-2.43-4.11,7.15,7.15,0,0,0-5-1.73,8.16,8.16,0,0,0-4.83,1.45,9.37,9.37,0,0,0-3.22,4.11,15.78,15.78,0,0,0-1.15,6.3,16.62,16.62,0,0,0,1.12,6.41,9.5,9.5,0,0,0,3.2,4.18,8.16,8.16,0,0,0,4.88,1.49,8.3,8.3,0,0,0,3.42-.7,7.07,7.07,0,0,0,2.59-2,7.67,7.67,0,0,0,1.47-3.14h6.44a12.64,12.64,0,0,1-2.15,5.88,12.37,12.37,0,0,1-4.79,4.07A15.64,15.64,0,0,1,549.78,233Z"/><path class="cls-1" d="M577.17,193.09a4.14,4.14,0,0,1-3-1.16,3.79,3.79,0,0,1,0-5.57,4.34,4.34,0,0,1,5.91,0,3.77,3.77,0,0,1,0,5.57A4.11,4.11,0,0,1,577.17,193.09Zm-3.34,39.23v-34h6.61v34Z"/><path class="cls-1" d="M606.64,233a15.58,15.58,0,0,1-8.34-2.19,14.69,14.69,0,0,1-5.53-6.13,20.21,20.21,0,0,1-2-9.2,20.46,20.46,0,0,1,2-9.25,14.68,14.68,0,0,1,5.53-6.15,17,17,0,0,1,16.68,0,14.75,14.75,0,0,1,5.53,6.15,20.59,20.59,0,0,1,2,9.25,20.34,20.34,0,0,1-2,9.2,14.76,14.76,0,0,1-5.53,6.13A15.63,15.63,0,0,1,606.64,233Zm0-5.55a7.93,7.93,0,0,0,5.13-1.64,9.56,9.56,0,0,0,3-4.36,18.59,18.59,0,0,0,0-12,9.74,9.74,0,0,0-3-4.4,7.88,7.88,0,0,0-5.13-1.66,8,8,0,0,0-5.17,1.66,9.84,9.84,0,0,0-3,4.4,18.77,18.77,0,0,0,0,12,9.66,9.66,0,0,0,3,4.36A8,8,0,0,0,606.66,227.45Z"/><path class="cls-1" d="M639.45,212.14v20.18h-6.62v-34h6.35v5.53h.42a9.72,9.72,0,0,1,3.69-4.34,11.38,11.38,0,0,1,6.34-1.64,12.4,12.4,0,0,1,6.08,1.45,9.84,9.84,0,0,1,4,4.31,15.53,15.53,0,0,1,1.44,7v21.62h-6.62V211.5a8.26,8.26,0,0,0-1.92-5.79,6.86,6.86,0,0,0-5.29-2.09,8.22,8.22,0,0,0-4.08,1,7,7,0,0,0-2.81,2.91A9.54,9.54,0,0,0,639.45,212.14Z"/><path class="cls-1" d="M687.68,233a16.63,16.63,0,0,1-8.64-2.15,14.36,14.36,0,0,1-5.57-6.09,22.6,22.6,0,0,1,0-18.41,15,15,0,0,1,5.48-6.22,15.11,15.11,0,0,1,8.26-2.24,16.53,16.53,0,0,1,5.58,1,13.49,13.49,0,0,1,4.84,3,14,14,0,0,1,3.39,5.28,22,22,0,0,1,1.24,7.86v2.35h-27v-5h20.53a9.79,9.79,0,0,0-1.07-4.63,8,8,0,0,0-3-3.2,8.43,8.43,0,0,0-4.48-1.17,8.62,8.62,0,0,0-4.86,1.36,9.17,9.17,0,0,0-3.18,3.54A10.14,10.14,0,0,0,678.1,213v3.87a12.68,12.68,0,0,0,1.21,5.8,8.44,8.44,0,0,0,3.37,3.64,10,10,0,0,0,5.07,1.25,10.31,10.31,0,0,0,3.42-.54,7.24,7.24,0,0,0,2.68-1.63,7.1,7.1,0,0,0,1.73-2.68l6.26,1.13a11.3,11.3,0,0,1-2.69,4.84,13.17,13.17,0,0,1-4.84,3.2A18.07,18.07,0,0,1,687.68,233Z"/><path class="cls-1" d="M738.08,206.63l-6,1.06a7.32,7.32,0,0,0-1.18-2.19,6,6,0,0,0-2.18-1.7,7.89,7.89,0,0,0-3.43-.66,8.26,8.26,0,0,0-4.69,1.25,3.74,3.74,0,0,0-1.88,3.22,3.38,3.38,0,0,0,1.26,2.74,10.24,10.24,0,0,0,4.07,1.7l5.4,1.24a14.46,14.46,0,0,1,7,3.34,7.83,7.83,0,0,1,2.3,5.86,8.88,8.88,0,0,1-1.76,5.44,11.65,11.65,0,0,1-4.89,3.72,18.12,18.12,0,0,1-7.24,1.35,16.24,16.24,0,0,1-9.31-2.44,10.25,10.25,0,0,1-4.43-7l6.39-1A6.1,6.1,0,0,0,720,226.4a8.4,8.4,0,0,0,4.85,1.27,8.86,8.86,0,0,0,5.19-1.36,4,4,0,0,0,2-3.33,3.5,3.5,0,0,0-1.18-2.68,8,8,0,0,0-3.62-1.63l-5.75-1.26a13.86,13.86,0,0,1-7-3.46,8.29,8.29,0,0,1-2.26-6,8.54,8.54,0,0,1,1.68-5.26,11,11,0,0,1,4.64-3.53,17.07,17.07,0,0,1,6.8-1.28c3.67,0,6.56.8,8.67,2.38A11.2,11.2,0,0,1,738.08,206.63Z"/><path class="cls-1" d="M781.67,233a17.19,17.19,0,0,1-7.85-1.66,12.29,12.29,0,0,1-5.05-4.52,12.12,12.12,0,0,1-1.77-6.5,10.27,10.27,0,0,1,1.15-4.92,14.54,14.54,0,0,1,3.21-4,47.1,47.1,0,0,1,4.75-3.7l7.3-5.15a11.44,11.44,0,0,0,2.9-2.58,5.35,5.35,0,0,0,1-3.37,4.42,4.42,0,0,0-1.37-3.06,4.8,4.8,0,0,0-3.67-1.46,5,5,0,0,0-2.8.78,5.48,5.48,0,0,0-1.88,2,5.11,5.11,0,0,0-.68,2.53,6.51,6.51,0,0,0,.86,3.12,20.65,20.65,0,0,0,2.2,3.24q1.35,1.68,2.83,3.46l21,25.16H796.4L779,211.85c-1.46-1.72-2.82-3.35-4.07-4.87a24.34,24.34,0,0,1-3-4.65,11.3,11.3,0,0,1-1.16-5.1,10.7,10.7,0,0,1,1.42-5.54,10,10,0,0,1,4-3.8,13.91,13.91,0,0,1,12,0,10,10,0,0,1,3.87,3.61,9.26,9.26,0,0,1,1.36,4.9,10.24,10.24,0,0,1-1.6,5.7,17.46,17.46,0,0,1-4.42,4.52l-9.09,6.7a12.41,12.41,0,0,0-3.68,3.84,6.83,6.83,0,0,0-1,3,6.73,6.73,0,0,0,1,3.6,7.34,7.34,0,0,0,2.83,2.66,8.81,8.81,0,0,0,4.28,1,11.73,11.73,0,0,0,4.92-1.09,14,14,0,0,0,4.36-3.16,15.4,15.4,0,0,0,3.11-4.93,17.34,17.34,0,0,0,1.15-6.44h6a24,24,0,0,1-1,7.4,17.55,17.55,0,0,1-2.4,4.91,18,18,0,0,1-2.65,3c-.26.23-.51.47-.75.71s-.49.47-.75.7a14.1,14.1,0,0,1-5.57,3.43A19.81,19.81,0,0,1,781.67,233Z"/><path class="cls-1" d="M838.88,187v45.31h-6.83V187Z"/><path class="cls-1" d="M857.91,212.14v20.18H851.3v-34h6.35v5.53h.42a9.7,9.7,0,0,1,3.68-4.34,11.4,11.4,0,0,1,6.34-1.64,12.4,12.4,0,0,1,6.08,1.45,9.84,9.84,0,0,1,4.05,4.31,15.53,15.53,0,0,1,1.44,7v21.62H873V211.5a8.26,8.26,0,0,0-1.92-5.79,6.85,6.85,0,0,0-5.29-2.09,8.28,8.28,0,0,0-4.08,1,7,7,0,0,0-2.81,2.91A9.54,9.54,0,0,0,857.91,212.14Z"/><path class="cls-1" d="M891.5,232.32v-34h6.35v5.53h.42a8.72,8.72,0,0,1,3.47-4.39,10.25,10.25,0,0,1,5.77-1.59,9.86,9.86,0,0,1,5.72,1.6,9.37,9.37,0,0,1,3.42,4.38H917a9.65,9.65,0,0,1,3.88-4.35,11.89,11.89,0,0,1,6.32-1.63,10.31,10.31,0,0,1,7.56,2.9c2,1.93,2.93,4.85,2.93,8.74v22.79h-6.62V210.15c0-2.3-.62-4-1.88-5a6.85,6.85,0,0,0-4.49-1.55,6.44,6.44,0,0,0-5,2,7.3,7.3,0,0,0-1.79,5.08v21.66H911.3V209.73a5.94,5.94,0,0,0-1.73-4.45,6.17,6.17,0,0,0-4.49-1.68,6.39,6.39,0,0,0-3.46,1,7.23,7.23,0,0,0-2.55,2.73,8.25,8.25,0,0,0-1,4.05v20.95Z"/><path class="cls-1" d="M963.84,233a15.63,15.63,0,0,1-8.34-2.19,14.76,14.76,0,0,1-5.53-6.13,20.34,20.34,0,0,1-2-9.2,20.59,20.59,0,0,1,2-9.25,14.75,14.75,0,0,1,5.53-6.15,17,17,0,0,1,16.68,0,14.68,14.68,0,0,1,5.53,6.15,20.46,20.46,0,0,1,2,9.25,20.21,20.21,0,0,1-2,9.2,14.69,14.69,0,0,1-5.53,6.13A15.58,15.58,0,0,1,963.84,233Zm0-5.55a8,8,0,0,0,5.14-1.64,9.72,9.72,0,0,0,3-4.36,18.77,18.77,0,0,0,0-12,9.9,9.9,0,0,0-3-4.4,8.82,8.82,0,0,0-10.3,0,9.68,9.68,0,0,0-3,4.4,18.59,18.59,0,0,0,0,12,9.51,9.51,0,0,0,3,4.36A8,8,0,0,0,963.86,227.45Z"/><path class="cls-1" d="M990.57,232.32V187h6.61v16.84h.4a19.37,19.37,0,0,1,1.66-2.46,9.49,9.49,0,0,1,3-2.44,10.49,10.49,0,0,1,5.09-1.06,13.31,13.31,0,0,1,7.34,2.08,14,14,0,0,1,5.08,6,22,22,0,0,1,1.85,9.42,22.2,22.2,0,0,1-1.84,9.44,14.19,14.19,0,0,1-5,6,13,13,0,0,1-7.33,2.11,10.76,10.76,0,0,1-5-1,9.35,9.35,0,0,1-3.06-2.43,18.7,18.7,0,0,1-1.71-2.48H997v5.29Zm6.48-17a17.47,17.47,0,0,0,1,6.28,9.43,9.43,0,0,0,3,4.21,7.67,7.67,0,0,0,4.82,1.52,7.75,7.75,0,0,0,5-1.58,9.86,9.86,0,0,0,3-4.31,17.3,17.3,0,0,0,1-6.12,17.08,17.08,0,0,0-1-6,9.28,9.28,0,0,0-3-4.23,7.92,7.92,0,0,0-5-1.55,7.84,7.84,0,0,0-4.85,1.49,9,9,0,0,0-3,4.13A17.25,17.25,0,0,0,997.05,215.33Z"/><path class="cls-1" d="M1035.35,193.09a4.1,4.1,0,0,1-2.95-1.16,3.77,3.77,0,0,1,0-5.57,4.33,4.33,0,0,1,5.9,0,3.77,3.77,0,0,1,0,5.57A4.11,4.11,0,0,1,1035.35,193.09ZM1032,232.32v-34h6.61v34Z"/><path class="cls-1" d="M1057.12,187v45.31h-6.61V187Z"/><path class="cls-1" d="M1072.34,193.09a4.11,4.11,0,0,1-2.95-1.16,3.77,3.77,0,0,1,0-5.57,4.34,4.34,0,0,1,5.91,0,3.77,3.77,0,0,1,0,5.57A4.14,4.14,0,0,1,1072.34,193.09ZM1069,232.32v-34h6.62v34Z"/><path class="cls-1" d="M1097.39,233.07a13.68,13.68,0,0,1-5.84-1.21,9.69,9.69,0,0,1-4.13-3.5,10.06,10.06,0,0,1-1.51-5.64A9.14,9.14,0,0,1,1087,218a8.08,8.08,0,0,1,3-2.94,15.91,15.91,0,0,1,4.2-1.64,41.19,41.19,0,0,1,4.74-.84l5-.58a7.18,7.18,0,0,0,2.76-.77,1.85,1.85,0,0,0,.86-1.72v-.16a6,6,0,0,0-1.62-4.49,6.67,6.67,0,0,0-4.84-1.59,8.42,8.42,0,0,0-5.25,1.47,7.89,7.89,0,0,0-2.64,3.26l-6.22-1.41a12,12,0,0,1,3.24-5,13.07,13.07,0,0,1,4.92-2.79,19.56,19.56,0,0,1,5.86-.88,21.17,21.17,0,0,1,4.33.48,12.93,12.93,0,0,1,4.29,1.74,9.63,9.63,0,0,1,3.29,3.59,12.57,12.57,0,0,1,1.28,6.05v22.57h-6.46v-4.65h-.27a9.18,9.18,0,0,1-1.92,2.52,10.22,10.22,0,0,1-3.3,2.06A12.69,12.69,0,0,1,1097.39,233.07Zm1.44-5.31a9.6,9.6,0,0,0,4.7-1.08,7.68,7.68,0,0,0,3-2.85,7.4,7.4,0,0,0,1-3.77v-4.38a3.33,3.33,0,0,1-1.37.65,18.56,18.56,0,0,1-2.28.51c-.86.14-1.69.27-2.5.38l-2,.27a17,17,0,0,0-3.51.82,6.16,6.16,0,0,0-2.52,1.65,4.14,4.14,0,0,0-.94,2.84,4.23,4.23,0,0,0,1.81,3.71A8,8,0,0,0,1098.83,227.76Z"/><path class="cls-1" d="M1126,232.32v-34h6.4v5.39h.35a8.27,8.27,0,0,1,3.29-4.32,9.39,9.39,0,0,1,5.34-1.58c.41,0,.9,0,1.47,0s1,.07,1.34.11v6.33a12.89,12.89,0,0,0-1.42-.25,13.77,13.77,0,0,0-2-.15,8.62,8.62,0,0,0-4.17,1,7.37,7.37,0,0,0-4,6.67v20.75Z"/><path class="cls-1" d="M1156.22,193.09a4.11,4.11,0,0,1-3-1.16,3.77,3.77,0,0,1,0-5.57,4.34,4.34,0,0,1,5.91,0,3.79,3.79,0,0,1,0,5.57A4.14,4.14,0,0,1,1156.22,193.09Zm-3.34,39.23v-34h6.62v34Z"/><path class="cls-1" d="M1181.27,233.07a13.68,13.68,0,0,1-5.84-1.21,9.69,9.69,0,0,1-4.13-3.5,10.06,10.06,0,0,1-1.51-5.64,9.24,9.24,0,0,1,1.1-4.74,8.18,8.18,0,0,1,3-2.94,15.78,15.78,0,0,1,4.2-1.64,41.19,41.19,0,0,1,4.74-.84l5-.58a7.19,7.19,0,0,0,2.77-.77,1.87,1.87,0,0,0,.86-1.72v-.16a6,6,0,0,0-1.62-4.49,6.67,6.67,0,0,0-4.84-1.59,8.42,8.42,0,0,0-5.25,1.47A8,8,0,0,0,1177,208l-6.21-1.41a12,12,0,0,1,3.24-5,13.07,13.07,0,0,1,4.92-2.79,19.56,19.56,0,0,1,5.86-.88,21.17,21.17,0,0,1,4.33.48,13,13,0,0,1,4.29,1.74,9.63,9.63,0,0,1,3.29,3.59,12.57,12.57,0,0,1,1.28,6.05v22.57h-6.46v-4.65h-.27a9.18,9.18,0,0,1-1.92,2.52,10.33,10.33,0,0,1-3.3,2.06A12.69,12.69,0,0,1,1181.27,233.07Zm1.44-5.31a9.6,9.6,0,0,0,4.7-1.08,7.75,7.75,0,0,0,3-2.85,7.39,7.39,0,0,0,1-3.77v-4.38a3.28,3.28,0,0,1-1.36.65,18.33,18.33,0,0,1-2.29.51c-.85.14-1.69.27-2.5.38l-2,.27a17,17,0,0,0-3.51.82,6.16,6.16,0,0,0-2.52,1.65,4.14,4.14,0,0,0-.94,2.84,4.2,4.2,0,0,0,1.81,3.71A8,8,0,0,0,1182.71,227.76Z"/></g></g></svg>