<svg width="60" height="60" viewBox="0 0 60 60" fill="none" xmlns="http://www.w3.org/2000/svg">
<g clip-path="url(#clip0_0_6968)">
<path d="M43.9689 4.68762V4.31262C43.9689 3.28137 44.8127 2.43762 45.8439 2.43762H47.1564C48.1877 2.43762 49.0314 3.28137 49.0314 4.31262V9.84387" stroke="black" stroke-width="1.84219" stroke-miterlimit="10" stroke-linecap="round" stroke-linejoin="round"/>
<path d="M18.9367 26.7189V20.0626L33.9367 4.96887C34.218 4.68762 34.593 4.68762 34.8742 4.96887L49.968 20.0626V32.0626" stroke="black" stroke-width="1.84219" stroke-miterlimit="10" stroke-linecap="round" stroke-linejoin="round"/>
<path d="M50.1564 20.2501L34.8752 4.96887C34.5939 4.68762 34.2189 4.68762 33.9377 4.96887L18.6564 20.2501C17.9064 21.0001 16.6877 21.0001 15.9377 20.2501C15.1877 19.5001 15.1877 18.2814 15.9377 17.5314L31.3127 2.25012C33.0939 0.468872 35.9064 0.468872 37.5939 2.25012L52.8752 17.5314C53.6252 18.2814 53.6252 19.5001 52.8752 20.2501C52.1252 21.0001 50.9064 21.0001 50.1564 20.2501Z" stroke="black" stroke-width="1.84219" stroke-miterlimit="10" stroke-linecap="round" stroke-linejoin="round"/>
<path d="M28.5002 27.7501V25.6876C28.5002 24.3751 29.6252 23.2501 30.9377 23.2501H37.7814C39.0939 23.2501 40.2189 24.3751 40.2189 25.6876V30.5626" stroke="black" stroke-width="1.84219" stroke-miterlimit="10" stroke-linecap="round" stroke-linejoin="round"/>
<path d="M12.5627 35.7191C13.8752 34.0316 15.6564 32.5316 17.8127 31.2191C21.2814 28.9691 25.7814 29.5316 28.6877 32.2504C29.7189 33.1879 30.9377 33.7504 32.3439 33.7504H37.7814C39.6564 33.7504 41.1564 35.2503 41.1564 37.1253V37.2191C41.1564 38.0629 40.8752 38.8129 40.4064 39.3754" stroke="black" stroke-width="1.84219" stroke-miterlimit="10" stroke-linecap="round" stroke-linejoin="round"/>
<path d="M22.7805 49.2191C23.0617 49.1253 23.4367 49.1253 23.718 49.1253L36.843 48.7503C39.9367 48.6566 42.9367 47.9066 45.7492 46.5003C50.1555 44.2503 54.2805 41.6253 57.9367 38.6253C58.4055 38.2503 58.6867 37.6878 58.6867 37.1253C58.6867 36.5628 58.4992 36.0941 58.0305 35.7191C56.343 34.2191 53.9055 34.0316 51.9367 35.1566C48.7492 37.1253 44.8117 38.4378 40.4992 39.4691C39.843 40.3128 38.9055 40.7816 37.7805 40.7816C34.8742 40.7816 31.218 40.7816 31.218 40.7816" stroke="black" stroke-width="1.84219" stroke-miterlimit="10" stroke-linecap="round" stroke-linejoin="round"/>
<path d="M18.843 55.7813L14.4367 59.0625L1.40546 41.7188L5.81171 38.4375C7.31171 37.3125 9.46796 37.5938 10.593 39.0938L19.4992 51C20.718 52.5 20.343 54.6563 18.843 55.7813Z" stroke="black" stroke-width="1.84219" stroke-miterlimit="10" stroke-linecap="round" stroke-linejoin="round"/>
</g>
<defs>
<clipPath id="clip0_0_6968">
<rect width="60" height="60" fill="white"/>
</clipPath>
</defs>
</svg>
