<svg width="60" height="60" viewBox="0 0 60 60" fill="none" xmlns="http://www.w3.org/2000/svg">
<path d="M56.9214 35.4014H50.0379C49.4949 35.4014 49.0546 35.8416 49.0546 36.3846C49.0546 36.9276 49.4949 37.3679 50.0379 37.3679H54.5472L37.254 54.6614L32.295 49.7022C31.9212 49.3287 31.3192 49.317 30.9313 49.6761L24.988 55.1792L21.4881 51.6792C21.1041 51.2954 20.4814 51.2954 20.0974 51.6792C19.7134 52.0634 19.7134 52.686 20.0974 53.07L24.2664 57.2391C24.4581 57.4307 24.7098 57.5271 24.9619 57.5271C25.2013 57.5271 25.4412 57.4401 25.63 57.2652L31.5733 51.7622L36.5586 56.7474C36.9427 57.1313 37.5653 57.1313 37.9494 56.7474L55.938 38.7587V43.2681C55.938 43.8112 56.3783 44.2515 56.9214 44.2515C57.4644 44.2515 57.9047 43.8112 57.9047 43.2681V36.3845C57.9048 35.8416 57.4645 35.4014 56.9214 35.4014Z" fill="black"/>
<path d="M22.0134 31.9595H29.3887H36.764C37.3071 31.9595 37.7474 31.5192 37.7474 30.9762V19.6675C37.7474 18.5829 36.8651 17.7007 35.7806 17.7007H30.3756C30.3847 17.7626 30.384 17.8265 30.372 17.8902V15.734C30.372 14.6496 29.4897 13.7673 28.4053 13.7673H22.9968C21.9123 13.7673 21.03 14.6496 21.03 15.734V23.1093H15.6215C14.537 23.1093 13.6547 23.9917 13.6547 25.0761V30.9763C13.6547 31.5193 14.0949 31.9596 14.6379 31.9596L22.0134 31.9595ZM30.3722 19.6675H35.7807V29.9928H30.3722V19.6675ZM22.9969 15.7339H28.4054V29.9927H22.9969V15.7339ZM15.6216 25.076H21.0301V29.9928H15.6216V25.076Z" fill="black"/>
<path d="M25.9455 41.7931C35.9769 41.7931 44.1379 33.6322 44.1379 23.6009C44.1379 13.5696 35.9769 5.40845 25.9455 5.40845C15.9143 5.40845 7.75311 13.5695 7.75311 23.6009C7.75323 33.632 15.9143 41.7931 25.9455 41.7931ZM25.9455 7.3752C34.8925 7.3752 42.1712 14.6539 42.1712 23.6009C42.1712 32.5476 34.8925 39.8265 25.9455 39.8265C16.9986 39.8265 9.71987 32.5476 9.71987 23.6009C9.71999 14.6539 16.9987 7.3752 25.9455 7.3752Z" fill="black"/>
<path d="M5.54045 59.079C6.62185 59.7035 7.80346 60.0001 8.97065 60C11.3513 59.9998 13.6701 58.7653 14.9436 56.5595L20.6876 46.6106C22.379 46.9969 24.1387 47.2018 25.9454 47.2018C38.9591 47.2018 49.5463 36.6144 49.5463 23.6009C49.5463 10.5873 38.9591 0 25.9454 0C12.9318 0 2.34451 10.5873 2.34451 23.6009C2.34451 29.8424 4.78108 35.525 8.75162 39.7499L3.0208 49.6759C1.12307 52.9631 2.25334 57.1813 5.54045 59.079ZM25.9454 1.96675C37.8746 1.96675 47.5796 11.6718 47.5796 23.601C47.5796 35.5301 37.8746 45.2351 25.9454 45.2351C14.0162 45.2351 4.31116 35.5301 4.31116 23.601C4.31126 11.6718 14.0162 1.96675 25.9454 1.96675ZM4.72412 50.6593L10.2036 41.1686C12.6427 43.3566 15.5382 45.0446 18.7279 46.0716L13.2404 55.5762C11.8849 57.924 8.87185 58.7316 6.52376 57.376C4.17592 56.0203 3.3685 53.0074 4.72412 50.6593Z" fill="black"/>
</svg>
